<svg width="173" height="55" viewBox="0 0 173 55" fill="none" xmlns="http://www.w3.org/2000/svg">
<path d="M59.1785 43.3776C58.4777 43.004 57.9005 42.4644 57.5295 41.7587C57.1173 41.0946 56.9111 40.3059 56.9111 39.4757C56.9111 38.604 57.1173 37.8568 57.5295 37.1927C57.9417 36.5285 58.4777 35.9889 59.1785 35.5738C59.8793 35.2002 60.6625 34.9927 61.5282 34.9927C62.2291 34.9927 62.8886 35.1172 63.4658 35.3663C64.0429 35.6153 64.5376 35.9889 64.9499 36.4455L63.9192 37.4417C63.3009 36.7776 62.5176 36.404 61.6107 36.404C61.0336 36.404 60.4976 36.5285 60.0029 36.7776C59.5495 37.0266 59.1785 37.4002 58.8899 37.8568C58.6425 38.3134 58.4776 38.853 58.4776 39.4342C58.4776 40.0153 58.6013 40.5549 58.8899 41.0115C59.1372 41.4681 59.5083 41.8417 60.0029 42.0908C60.4564 42.3398 60.9923 42.4644 61.6107 42.4644C62.5176 42.4644 63.3009 42.1323 63.9192 41.4266L64.9499 42.4229C64.5376 42.8795 64.0429 43.2531 63.4658 43.5021C62.8886 43.7512 62.2291 43.8757 61.5282 43.8757C60.6625 43.9587 59.8793 43.7512 59.1785 43.3776Z" fill="#676767"/>
<path d="M73.6482 43.3776C72.9474 43.004 72.3702 42.4644 71.9992 41.7587C71.587 41.053 71.3809 40.3059 71.3809 39.4757C71.3809 38.6455 71.587 37.8568 71.9992 37.1927C72.4115 36.5285 72.9474 35.9889 73.6482 35.5738C74.349 35.2002 75.1323 34.9927 76.0392 34.9927C76.9461 34.9927 77.7294 35.2002 78.4302 35.5738C79.131 35.9474 79.7081 36.487 80.1204 37.1927C80.5326 37.8568 80.7387 38.6455 80.7387 39.4757C80.7387 40.3474 80.5326 41.0946 80.1204 41.7587C79.7081 42.4229 79.1722 42.9625 78.4302 43.3776C77.7294 43.7512 76.9461 43.9587 76.0392 43.9587C75.1323 43.9587 74.349 43.7512 73.6482 43.3776ZM77.5645 42.1323C78.0179 41.8832 78.389 41.5097 78.6363 41.0531C78.8836 40.5965 79.0485 40.0568 79.0485 39.4757C79.0485 38.8946 78.9249 38.3549 78.6363 37.8983C78.3477 37.4417 78.0179 37.0681 77.5645 36.8191C77.111 36.57 76.5751 36.4455 75.998 36.4455C75.4208 36.4455 74.8849 36.57 74.4314 36.8191C73.978 37.0681 73.607 37.4417 73.3596 37.8983C73.1123 38.3549 72.9474 38.8946 72.9474 39.4757C72.9474 40.0568 73.071 40.5965 73.3596 41.0531C73.607 41.5097 73.978 41.8832 74.4314 42.1323C74.8849 42.3813 75.4208 42.5059 75.998 42.5059C76.5751 42.5059 77.111 42.3813 77.5645 42.1323Z" fill="#676767"/>
<path d="M95.9512 43.8342V38.0644L93.1067 42.8379H92.4059L89.5614 38.1474V43.8342H88.0361V35.1172H89.3553L92.7769 40.887L96.1573 35.1172H97.4765V43.8342H95.9512Z" fill="#676767"/>
<path d="M113.389 43.8342V38.0644L110.544 42.8379H109.843L106.999 38.1474V43.8342H105.474V35.1172H106.793L110.214 40.887L113.595 35.1172H114.914V43.8342H113.389Z" fill="#676767"/>
<path d="M129.384 42.4644V43.8342H122.87V35.1172H129.177V36.487H124.478V38.77H128.642V40.0983H124.478V42.5059H129.384V42.4644Z" fill="#676767"/>
<path d="M142.452 43.8344L140.68 41.2608C140.597 41.2608 140.515 41.2608 140.35 41.2608H138.412V43.7929H136.805V35.0759H140.35C141.092 35.0759 141.752 35.2005 142.329 35.4495C142.906 35.6986 143.318 36.0722 143.607 36.5288C143.895 36.9854 144.06 37.525 144.06 38.1891C144.06 38.8533 143.895 39.3929 143.565 39.891C143.236 40.3476 142.782 40.7212 142.205 40.9288L144.184 43.7929H142.452V43.8344ZM141.875 36.9024C141.504 36.6118 140.968 36.4457 140.268 36.4457H138.371V39.9325H140.268C140.968 39.9325 141.504 39.7665 141.875 39.4759C142.246 39.1854 142.411 38.7288 142.411 38.1891C142.411 37.6495 142.246 37.2344 141.875 36.9024Z" fill="#676767"/>
<path d="M153.087 43.3776C152.386 43.004 151.85 42.4644 151.438 41.7587C151.025 41.0946 150.819 40.3059 150.819 39.4757C150.819 38.604 151.025 37.8568 151.438 37.1927C151.85 36.5285 152.386 35.9889 153.087 35.5738C153.787 35.2002 154.571 34.9927 155.436 34.9927C156.137 34.9927 156.797 35.1172 157.374 35.3663C157.951 35.6153 158.446 35.9889 158.858 36.4455L157.827 37.4417C157.209 36.7776 156.426 36.404 155.519 36.404C154.942 36.404 154.406 36.5285 153.911 36.7776C153.458 37.0266 153.087 37.4002 152.798 37.8568C152.551 38.3134 152.386 38.853 152.386 39.4342C152.386 40.0153 152.51 40.5549 152.798 41.0115C153.045 41.4681 153.416 41.8417 153.911 42.0908C154.365 42.3398 154.901 42.4644 155.519 42.4644C156.426 42.4644 157.209 42.1323 157.827 41.4266L158.858 42.4229C158.446 42.8795 157.951 43.2531 157.374 43.5021C156.797 43.7512 156.137 43.8757 155.436 43.8757C154.612 43.9587 153.829 43.7512 153.087 43.3776Z" fill="#676767"/>
<path d="M172.587 42.4644V43.8342H166.073V35.1172H172.381V36.487H167.681V38.77H171.886V40.0983H167.722V42.5059H172.587V42.4644Z" fill="#676767"/>
<path d="M23.6427 43.8757L16.3873 47.9851L9.13184 43.8757V35.6568L16.3873 31.5889L23.6427 35.6568V43.8757Z" fill="#EC2227"/>
<path d="M39.2673 43.8757L32.0118 47.9851L24.7563 43.8757V35.6568L32.0118 31.5889L39.2673 35.6568V43.8757Z" fill="#EC2227"/>
<path d="M46.9762 30.676L39.7208 34.7854L32.4653 30.676V22.4986L39.7208 18.3892L46.9762 22.4986V30.676Z" fill="#F15C27"/>
<path d="M31.5168 30.676L24.2613 34.7854L17.0059 30.676V22.4986L24.2613 18.3892L31.5168 22.4986V30.676Z" fill="#F15C27"/>
<path d="M16.0168 30.676L8.76132 34.7854L1.50586 30.676V22.4986L8.76132 18.3892L16.0168 22.4986V30.676Z" fill="#F15C27"/>
<path d="M23.6427 17.517L16.3873 21.6265L9.13184 17.517V9.33966L16.3873 5.23022L23.6427 9.33966V17.517Z" fill="#F79421"/>
<path d="M39.2673 17.517L32.0118 21.6265L24.7563 17.517V9.33966L32.0118 5.23022L39.2673 9.33966V17.517Z" fill="#F79421"/>
<path d="M23.8071 0C21.7871 0 19.932 1.86793 18.4067 5.43774L19.5198 6.01887V5.97737C20.7977 2.90567 22.323 1.24528 23.8071 1.24528C27.4761 1.24528 31.4336 11.7887 31.4336 27.4793C31.4336 43.1698 27.4761 53.7132 23.8071 53.7132C22.2406 53.7132 20.6328 51.8038 19.2724 48.317C19.2724 48.317 19.2724 48.2755 19.2312 48.2755L18.1182 48.8566C19.6847 52.883 21.6634 55 23.7659 55C29.3311 55 32.6291 41.0113 32.6291 27.5208C32.6291 14.0302 29.3724 0 23.8071 0Z" fill="#B4B4B4"/>
<path d="M0.969016 13.7397C-0.0203637 15.4831 0.639224 18.0567 2.989 21.1699L4.01961 20.5058C4.01961 20.5058 4.0196 20.5058 3.97838 20.4643C1.99962 17.8077 1.29881 15.6492 2.04084 14.3624C3.89593 11.1662 14.9028 12.9926 28.4243 20.7963C41.9458 28.6416 49.0364 37.3171 47.1813 40.5548C46.398 41.9246 43.9246 42.3812 40.2556 41.8001H40.2144L40.132 43.0454C44.3781 43.668 47.1813 43.0454 48.2531 41.1775C51.0152 36.3209 40.6679 26.4831 29.0427 19.7171C17.4587 12.9926 3.77226 8.92464 0.969016 13.7397Z" fill="#B4B4B4"/>
<path d="M48.0888 13.7395C49.0782 15.5244 48.3362 18.0565 45.9864 21.1282L44.9558 20.4225C44.9558 20.4225 44.9558 20.4225 44.997 20.381C47.017 17.7659 47.7178 15.6074 47.017 14.3206C45.2032 11.0829 34.1551 12.7848 20.5511 20.464C6.94712 28.1433 -0.267103 36.7772 1.54676 40.015C2.33002 41.3848 4.76224 41.8829 8.4312 41.3433H8.47242L8.51364 42.5886C4.26755 43.1697 1.46431 42.5055 0.433706 40.5961C-2.28709 35.7395 8.22508 25.9848 19.8915 19.3848C31.6404 12.7848 45.368 8.8829 48.0888 13.7395Z" fill="#B4B4B4"/>
<path d="M75.6272 12.8267V32.2531H70.7627V24.7814H62.1057V32.2531H57.5298V12.8267H62.1057V20.838H70.7627V12.8682H75.6272V12.8267Z" fill="black"/>
<path d="M80.6566 31.1321C79.0901 30.3019 77.8533 29.0981 76.9876 27.6038C76.0807 26.1095 75.6685 24.4076 75.6685 22.5397C75.6685 20.6717 76.1219 18.9698 76.9876 17.4755C77.8946 15.9812 79.0901 14.8189 80.6566 13.9472C82.2231 13.117 83.9545 12.6604 85.9333 12.6604C87.8708 12.6604 89.6434 13.0755 91.21 13.9472C92.7765 14.7774 94.0132 15.9812 94.8789 17.4755C95.7859 18.9698 96.1981 20.6717 96.1981 22.5397C96.1981 24.4076 95.7446 26.1095 94.8789 27.6038C93.972 29.0981 92.7765 30.2604 91.21 31.1321C89.6434 31.9623 87.912 32.4189 85.9333 32.4189C83.9545 32.4189 82.1819 32.0038 80.6566 31.1321ZM88.4479 27.3132C89.19 26.8566 89.8083 26.234 90.2618 25.4038C90.7153 24.5736 90.9214 23.6189 90.9214 22.5812C90.9214 21.5019 90.7153 20.5887 90.2618 19.7585C89.8083 18.9283 89.2312 18.3057 88.4479 17.8491C87.7059 17.3925 86.8402 17.1849 85.892 17.1849C84.9439 17.1849 84.1194 17.3925 83.3362 17.8491C82.5941 18.3057 81.9757 18.9283 81.5223 19.7585C81.0688 20.5887 80.8627 21.5434 80.8627 22.5812C80.8627 23.6604 81.0688 24.5736 81.5223 25.4038C81.9757 26.234 82.5529 26.8566 83.3362 27.3132C84.0782 27.7698 84.9439 27.9774 85.892 27.9774C86.8402 27.9774 87.7059 27.7698 88.4479 27.3132Z" fill="black"/>
<path d="M99.2901 16.8531H92.9004V12.9097L109.844 12.8267V16.8531H104.319V32.2116L99.2901 32.2531V16.8531Z" fill="black"/>
<path d="M139.772 12.8267L133.094 32.2531H127.982L124.149 18.9701L120.521 32.2531H115.533L108.401 12.8267H113.678L118.13 27.1474L121.799 12.8267H126.622L130.744 27.1474L134.826 12.8267H139.772Z" fill="black"/>
<path d="M149.543 28.6833H142.04L140.803 32.2531H136.186L143.565 12.8267H148.265L155.355 32.2531H150.738L149.543 28.6833ZM148.265 24.9889L145.791 17.9738L143.318 24.9889H148.265Z" fill="black"/>
<path d="M166.196 32.2533L162.115 26.1514L157.952 32.2533H152.469L158.817 22.3326L152.799 12.8684H158.529L162.156 18.5552L165.867 12.8684H171.679L164.96 22.1665L172.133 32.2533H166.196Z" fill="black"/>
</svg>
